<svg xmlns="http://www.w3.org/2000/svg" viewBox="0 0 1200 400"><defs><linearGradient id="bg" x1="0" y1="0" x2="1" y2="1"><stop stop-color="#102a43"/><stop offset="1" stop-color="#071b2d"/></linearGradient></defs><rect width="1200" height="400" rx="34" fill="url(#bg)"/><path d="M0 130C150 70 270 168 420 112s280 48 420 0 250 14 360-45v333H0z" fill="#0b2237"/><path d="M0 225c175-72 295 38 450-24s270 52 430 4 215 18 320-18v213H0z" fill="#091d30"/><text x="72" y="168" fill="#edf4f5" font-family="Inter,Segoe UI,Arial,sans-serif" font-size="60" font-weight="700">PernoLabel</text><text x="74" y="216" fill="#9fb3c2" font-family="Inter,Segoe UI,Arial,sans-serif" font-size="24" letter-spacing="2">Code128 · QR · PDF</text><rect x="74" y="247" width="150" height="5" rx="3" fill="#3bd3df"/><rect x="244" y="247" width="64" height="5" rx="3" fill="#436579"/><g transform="translate(850 88)"><path d="M66 22h142l62 62v178H66z" fill="#edf4f5"/><circle cx="207" cy="83" r="22" fill="#0d273d" stroke="#3bd3df" stroke-width="10"/><path d="M206 63c20-35 56-43 80-16" fill="none" stroke="#3bd3df" stroke-width="12" stroke-linecap="round"/><g fill="#0d273d"><rect x="92" y="116" width="10" height="68"/><rect x="109" y="116" width="18" height="68"/><rect x="136" y="116" width="8" height="68"/><rect x="153" y="116" width="15" height="68"/><rect x="178" y="116" width="10" height="68"/><rect x="197" y="116" width="22" height="68"/></g><g fill="#0d273d"><rect x="94" y="204" width="24" height="24"/><rect x="126" y="204" width="12" height="12"/><rect x="148" y="204" width="24" height="24"/><rect x="180" y="204" width="12" height="12"/><rect x="202" y="204" width="24" height="24"/></g><g fill="#3bd3df"><rect x="94" y="204" width="7" height="7"/><rect x="148" y="204" width="7" height="7"/><rect x="202" y="204" width="7" height="7"/></g></g></svg>